<svg xmlns="http://www.w3.org/2000/svg" xmlns:xlink="http://www.w3.org/1999/xlink"><symbol id="android-logo"><path d="M34.886 14.062H8.114v19.133c-.011.913.332 1.795.96 2.468a3.697 3.697 0 0 0 2.422 1.159v7.453c.044.737.374 1.43.922 1.936a2.986 2.986 0 0 0 2.026.789c.753 0 1.478-.282 2.026-.789.548-.506.878-1.199.922-1.936v-7.433h8.236v7.433c.045.737.375 1.43.922 1.936a2.985 2.985 0 0 0 2.026.789c.754 0 1.478-.282 2.026-.789.548-.506.878-1.199.922-1.936v-7.453a3.707 3.707 0 0 0 2.426-1.158c.63-.673.975-1.555.967-2.468V14.402l-.03-.34ZM2.953 15.745c.78 0 1.53.304 2.081.845.552.54.862 1.275.862 2.04v12.402c.001.38-.074.756-.22 1.107a2.88 2.88 0 0 1-.638.94 2.947 2.947 0 0 1-.956.627 2.995 2.995 0 0 1-3.217-.627A2.866 2.866 0 0 1 0 31.032V18.63c0-.38.076-.756.225-1.107.149-.35.366-.669.64-.937.275-.268.6-.48.959-.625a2.995 2.995 0 0 1 1.13-.216ZM40.057 15.745c.78 0 1.53.304 2.081.845.552.54.862 1.275.862 2.04v12.402c.001.38-.074.756-.221 1.107-.147.351-.364.67-.637.94a2.947 2.947 0 0 1-.956.627 2.994 2.994 0 0 1-3.217-.627 2.867 2.867 0 0 1-.865-2.047V18.63c0-.38.076-.756.225-1.107.148-.35.366-.669.64-.937.275-.268.6-.48.959-.625a2.995 2.995 0 0 1 1.129-.216ZM8.175 12.058h26.568a10.404 10.404 0 0 0-3.26-7.293L34.049.498a.307.307 0 0 0-.122-.461.322.322 0 0 0-.42.11l-2.42 4.157A16.708 16.708 0 0 0 21.458.898a16.977 16.977 0 0 0-9.575 3.406L9.504.187a.325.325 0 0 0-.184-.16.333.333 0 0 0-.246.01.315.315 0 0 0-.112.42l2.493 4.238a10.443 10.443 0 0 0-3.28 7.363Zm17.699-5.21c0-.398.161-.78.449-1.062.287-.281.677-.44 1.083-.44.407 0 .797.159 1.084.44.288.282.45.664.45 1.063 0 .398-.162.78-.45 1.062-.287.282-.677.44-1.084.44-.406 0-.796-.158-1.083-.44a1.488 1.488 0 0 1-.45-1.062Zm-11.384 0c0-.398.162-.78.449-1.062.287-.281.677-.44 1.084-.44.406 0 .796.159 1.084.44.287.282.449.664.449 1.063 0 .398-.162.78-.45 1.062-.287.282-.677.44-1.083.44-.407 0-.797-.158-1.084-.44a1.488 1.488 0 0 1-.449-1.062Z" fill="#A4C639"/></symbol><symbol id="apple-logo"><path d="M39.245 29.74a12.09 12.09 0 0 0 2.127 6.787A12.668 12.668 0 0 0 47 41.063a29.794 29.794 0 0 1-4 7.96c-2.401 3.413-4.905 6.816-8.844 6.904-3.938.09-5.088-2.219-9.526-2.219-4.437 0-5.8 2.15-9.465 2.288-3.663.139-6.686-3.718-9.088-7.111-4.956-6.905-8.752-19.639-3.664-28.2a13.925 13.925 0 0 1 5.024-5.037 14.489 14.489 0 0 1 6.935-1.977c3.724-.069 7.246 2.427 9.526 2.427 2.28 0 6.564-3.009 11.062-2.565 2.084.073 4.121.613 5.954 1.576a13.387 13.387 0 0 1 4.61 3.977c-.275.168-6.31 3.571-6.249 10.653h-.03ZM31.978 8.936C34.16 6.46 35.238 3.247 34.981 0c-3.305.302-6.364 1.82-8.55 4.241-1.862 2.092-3.5 5.445-3.053 8.66 3.247.247 6.555-1.597 8.57-3.945" fill="#fff"/></symbol><symbol id="checkbox-tick"><path d="M21.7.284a1.024 1.024 0 0 0-1.42 0L6.704 13.603 1.735 8.729a1.015 1.015 0 0 0-.72-.294 1.031 1.031 0 0 0-.72.294.985.985 0 0 0 0 1.403l5.688 5.58a1.016 1.016 0 0 0 .72.288c.266-.001.521-.105.71-.289L21.7 1.697A.995.995 0 0 0 22 .99a.978.978 0 0 0-.3-.707Z" fill="#D22856"/></symbol><symbol id="close-menu-btn"><path d="M20.849 0 0 20.849 2.151 23 23 2.151 20.849 0Z" fill="#fff"/><path d="M2.151 0 0 2.151 20.849 23 23 20.849 2.151 0Z" fill="#fff"/></symbol><symbol id="feature-no"><path d="m15.644 13.507 10.91-10.92a1.503 1.503 0 0 0 0-2.14 1.524 1.524 0 0 0-2.14 0l-10.909 10.92L2.586.447a1.504 1.504 0 0 0-2.14 0 1.524 1.524 0 0 0 0 2.14l10.92 10.92-10.92 10.91a1.503 1.503 0 0 0 0 2.139 1.514 1.514 0 0 0 2.14 0l10.919-10.91 10.909 10.91a1.514 1.514 0 0 0 2.14-2.14l-10.91-10.91Z" fill="#F25B26"/></symbol><symbol id="feature-yes"><path d="M30.556.43a1.54 1.54 0 0 0-.499-.318 1.607 1.607 0 0 0-1.179 0 1.54 1.54 0 0 0-.499.318L10.374 17.496 2.578 10.11a1.582 1.582 0 0 0-1.072-.39 1.576 1.576 0 0 0-1.057.425c-.28.266-.442.625-.449 1.001-.007.377.14.74.411 1.016l8.88 8.412c.142.135.31.243.497.316a1.596 1.596 0 0 0 1.67-.316L30.556 2.482c.284-.274.444-.642.444-1.026S30.84.703 30.556.43Z" fill="#3DC644"/></symbol><symbol id="form-mail-icon"><path d="M14.91 1.68c1.2-.928.91-1.68-.65-1.68H3.73c-1.56 0-1.85.761-.66 1.68l3.75 2.898c.621.45 1.387.696 2.175.696.788 0 1.554-.245 2.175-.696l3.74-2.897Z" fill="#D22856"/><path d="M11.91 6.5 9.7 8.246a1.13 1.13 0 0 1-.26.111l-.1.047c-.109.042-.223.07-.34.083l-.33-.056-.12-.074a1.183 1.183 0 0 1-.24-.13L6.08 6.5l-3.9-2.971C1 2.6 0 3.027 0 4.476v5.859c-.003.347.069.692.21 1.014.14.322.348.615.61.863.263.247.576.444.92.58A3.04 3.04 0 0 0 2.83 13h12.32c.376 0 .748-.07 1.095-.203.347-.134.662-.331.927-.579.265-.247.475-.541.617-.865.142-.323.214-.669.211-1.018v-5.86c0-1.448-1-1.856-2.18-.928L11.91 6.5Z" fill="#D22856"/></symbol><symbol id="form-phone-icon"><path d="M10.04 0C6.465 0 2.908.608 1.583 1.815a6.392 6.392 0 0 0-1.58 3.892c-.003.055-.003.11 0 .164 0 .21.088.412.245.56a.86.86 0 0 0 .591.232l3.24-.25h.082a.865.865 0 0 0 .581-.237.78.78 0 0 0 .176-.256.746.746 0 0 0 .059-.3V4.046a.83.83 0 0 1 .067-.335.867.867 0 0 1 .198-.286.922.922 0 0 1 .299-.19.961.961 0 0 1 .353-.068h8.153c.246 0 .482.093.656.258a.856.856 0 0 1 .271.621v1.555a.77.77 0 0 0 .238.553c.152.148.36.234.578.239h.091l3.282.251a.876.876 0 0 0 .59-.232.79.79 0 0 0 .182-.257.756.756 0 0 0 .064-.303 1.45 1.45 0 0 0 0-.164 6.455 6.455 0 0 0-1.56-3.863C17.195.608 13.618 0 10.041 0Zm0 10.304c-.33 0-.653.093-.928.267-.275.174-.489.421-.615.71-.127.29-.16.608-.095.916.064.307.223.59.457.81.234.222.531.373.856.434.324.061.66.03.965-.09.306-.12.567-.323.75-.583a1.526 1.526 0 0 0-.204-2.003 1.669 1.669 0 0 0-.544-.343 1.742 1.742 0 0 0-.641-.118ZM8.788 6.76v-.966a.94.94 0 0 0-.298-.683 1.048 1.048 0 0 0-.72-.283c-.271 0-.53.102-.722.283a.94.94 0 0 0-.298.683v.966l-5.728 5.688a1.932 1.932 0 0 0-.471.647 1.843 1.843 0 0 0-.16.772v1.584c0 .421.175.825.488 1.123a1.73 1.73 0 0 0 1.183.47h.418v.966c0 .13.027.259.08.379.052.12.129.23.226.321.097.092.212.165.339.215a1.096 1.096 0 0 0 1.138-.215.988.988 0 0 0 .227-.321.945.945 0 0 0 .079-.379v-.966h10.905v.966c0 .263.11.514.306.7.196.186.461.29.738.29.277 0 .543-.104.739-.29a.964.964 0 0 0 .306-.7v-.966h.418c.22 0 .438-.04.642-.121.203-.08.388-.198.543-.346a1.58 1.58 0 0 0 .362-.517c.083-.193.125-.4.124-.609v-1.584a1.844 1.844 0 0 0-.155-.77 1.933 1.933 0 0 0-.466-.65L13.382 6.76v-.966a.964.964 0 0 0-.305-.7 1.075 1.075 0 0 0-.74-.29c-.276 0-.542.105-.738.29a.964.964 0 0 0-.306.7v.966H8.787Zm1.254 1.931c.66 0 1.307.186 1.857.534.55.348.978.843 1.231 1.422.253.578.32 1.215.19 1.83a3.12 3.12 0 0 1-.915 1.621 3.403 3.403 0 0 1-1.711.867c-.649.123-1.32.06-1.931-.18a3.312 3.312 0 0 1-1.5-1.167 3.05 3.05 0 0 1-.564-1.76c0-.84.352-1.645.98-2.239a3.439 3.439 0 0 1 2.363-.928Z" fill="#D22856"/></symbol><symbol id="heart"><path d="M6.469 12a.782.782 0 0 1-.58-.25C1.958 7.42 1.036 6.44.86 6.17A3.765 3.765 0 0 1 0 3.8a3.723 3.723 0 0 1 .63-2.045A3.921 3.921 0 0 1 2.3.355 4.09 4.09 0 0 1 4.487.035 4.031 4.031 0 0 1 6.51.9 4.08 4.08 0 0 1 9.07 0a4.013 4.013 0 0 1 2.78 1.117A3.733 3.733 0 0 1 13 3.8a3.409 3.409 0 0 1-.923 2.38l-5.038 5.56a.757.757 0 0 1-.57.25V12ZM2.073 5.28c.218.26 2.56 2.84 4.396 4.86l4.478-4.94a1.96 1.96 0 0 0 .539-1.4c0-.618-.254-1.21-.707-1.648A2.461 2.461 0 0 0 9.07 1.47c-.38.003-.756.09-1.097.252-.341.163-.64.398-.873.688a.844.844 0 0 1-.612.28.757.757 0 0 1-.332-.082.729.729 0 0 1-.258-.218 2.43 2.43 0 0 0-.868-.682 2.49 2.49 0 0 0-2.372.132 2.369 2.369 0 0 0-.882.968 2.267 2.267 0 0 0 .296 2.462v.01Z" fill="#D22856"/></symbol><symbol id="main-nav-toggle"><path d="M1.14 0C.99 0 .84.02.7.07S.43.2.33.3A.88.88 0 0 0 0 1v2c0 .27.12.52.33.7.22.2.5.3.8.3h47.73c.15 0 .3-.02.44-.07s.27-.12.37-.22A.88.88 0 0 0 50 3V1a.94.94 0 0 0-.33-.7c-.22-.2-.5-.3-.8-.3H1.13Zm0 10c-.15 0-.3.02-.44.07s-.27.12-.37.22A.88.88 0 0 0 0 11v2c0 .27.12.52.33.7.22.2.5.3.8.3h47.73c.15 0 .3-.02.44-.07s.27-.12.37-.22A.88.88 0 0 0 50 13v-2a.94.94 0 0 0-.33-.7c-.22-.2-.5-.3-.8-.3H1.13Zm0 10c-.15 0-.3.02-.44.07s-.27.12-.37.22A.88.88 0 0 0 0 21v2c0 .27.12.52.33.7.22.2.5.3.8.3h47.73c.15 0 .3-.02.44-.07s.27-.12.37-.22A.88.88 0 0 0 50 23v-2a.94.94 0 0 0-.33-.7c-.22-.2-.5-.3-.8-.3H1.13Z" fill="#fff"/></symbol><symbol id="microsoft-logo"><path d="M20.908 19.524H0V0h20.908v19.524Z" fill="#F05423"/><path d="M44 19.524H23.092V0H44v19.524Z" fill="#84C441"/><path d="M20.908 41H0V21.476h20.908V41Z" fill="#2DABE2"/><path d="M44 41H23.092V21.476H44V41Z" fill="#F9BC15"/></symbol><symbol id="reviews-quote-icon"><path d="M35.147 6.973 30.839 0C28.389 1.481 0 12.059 0 39.13 0 46.27.341 63 18.98 63c11.236 0 13.998-10.153 13.998-13.422 0-21.727-21.47-13.994-21.47-13.994 0-17.807 19.883-26.518 23.639-28.611ZM79 6.973 74.732 0c-2.43 1.481-30.849 12.059-30.849 39.13 0 7.14.342 23.87 18.99 23.87C74.1 63 76.86 52.847 76.86 49.578c0-21.727-21.47-13.994-21.47-13.994C55.391 17.777 75.315 9.066 79 6.973Z" fill="#EFEFEF"/></symbol></svg>